<svg width="176" height="30" viewBox="0 0 176 30" xmlns="http://www.w3.org/2000/svg"><g id="官网" stroke="none" stroke-width="1" fill="none" fill-rule="evenodd"><g id="产品服务" transform="translate(-110 -30)" fill="#FFF" fill-rule="nonzero"><g id="资源-3" transform="translate(110 30)"><path id="路径" d="M6.671 7.047H0V3h18v4.047h-6.633V30H6.671zM33 11.971a12.231 12.231 0 0 0-2.378-.234c-1.887 0-3.89.736-5.018 2.13V29H21V7.442h3.587l.98 2.85h.15c.868-1.898 2.754-3.291 5.396-3.291A8.315 8.315 0 0 1 33 7.194v4.777z"/><path d="M51.337 27.788C49.759 29.01 47.607 30 43.913 30 37.376 30 34 26.455 34 18.945 34 11.744 38.039 8 43.692 8 49 8 52 11.354 52 16.498a28.215 28.215 0 0 1-.23 3.735H38.645c.153 4.042 1.923 5.947 5.806 5.947a7.119 7.119 0 0 0 4.815-1.793l2.07 3.401zM38.722 16.964h8.78v-.842c0-2.896-1.269-4.457-4-4.457-2.665.003-4.628 1.83-4.78 5.299z" id="形状"/><path d="M73 29h-4.938V15.182c0-2.623-1.275-4.09-3.665-4.09-1.998.002-3.788 1.2-4.498 3.01V29H55V7.503h3.782l.997 2.123h.159C61.014 8.35 63.283 7 66.03 7c4.381 0 6.929 2.316 6.97 7.14V29z" id="路径"/><path d="M89.262 0H94v29.609h-3.693l-.813-1.953h-.155c-.7.897-2.57 2.344-5.426 2.344C79.258 30 76 26.914 76 19.803c0-8.709 4.615-12.031 9.735-12.031 1.19-.015 2.378.13 3.53.431L89.262 0zm.114 23.632V12.414c-.656-.391-2.016-.664-3.024-.664-3.295 0-5.506 1.64-5.506 7.576 0 4.921 1.94 6.76 4.421 6.76 1.94.01 3.258-.97 4.11-2.454z" id="形状"/><path id="路径" d="M102 29V2h14v2.156h-11.57v10.707h10.23v2.159h-10.23V29zM120 9h2.21v13.53c0 3.655 1.565 5.42 4.96 5.42 3.05 0 5.617-1.642 5.617-5.648V9H135v20.578h-1.64l-.497-2.212h-.152c-.421.61-2.328 2.634-5.988 2.634-4.159 0-6.6-2.216-6.712-6.835L120 9zM156 28.989h-2.215V15.342c0-3.401-1.718-5.276-4.85-5.276a6.098 6.098 0 0 0-5.723 4.014V29H141V8.386h1.65l.495 2.252h.154c.38-.535 2.443-2.638 5.954-2.638 4.124 0 6.643 2.252 6.747 6.804v14.185z"/><path d="M173.7 0h2.3v29.57h-1.664l-.583-2.258h-.158c-.876 1.434-2.919 2.688-5.668 2.688-4.912 0-7.927-3.156-7.927-10.041 0-7.247 3.926-11.338 10.347-11.338a19.67 19.67 0 0 1 3.368.313L173.7 0zm0 24.116V11.143a16.153 16.153 0 0 0-3.368-.428c-5.39 0-7.968 3.116-7.968 8.92 0 6.392 2.933 8.3 5.945 8.3 2.814 0 4.518-1.599 5.391-3.82z" id="形状"/></g></g></g></svg>